<svg version="1.1" width="24.000000" height="24.000000" viewBox="0.000000 0.000000 24.000000 24.000000" xmlns="http://www.w3.org/2000/svg" xmlns:xlink="http://www.w3.org/1999/xlink" id="Layer_1" overflow="hidden"><path d=" M 8.147000 19.010000 C 9.877000 17.791000 11.863000 16.149000 14.006000 14.006000 C 16.207001 11.805000 17.825001 9.839000 19.014000 8.153000 C 17.653999 5.678000 15.024000 4.000000 12.000000 4.000000 C 7.582000 4.000000 4.000000 7.582000 4.000000 12.000000 C 4.000000 15.021000 5.675000 17.649000 8.147000 19.010000 Z" fill="#B8D432"/><path d=" M 16.127001 16.127001 C 14.697000 17.556000 13.239000 18.851999 11.809000 19.990000 C 11.873000 19.992001 11.936000 20.000000 12.000000 20.000000 C 16.417999 20.000000 20.000000 16.417999 20.000000 12.000000 C 20.000000 11.935000 19.992001 11.873000 19.990000 11.809000 C 18.820000 13.276000 17.513000 14.741000 16.127001 16.127001 Z" fill="#B8D432"/><path d=" M 23.417000 0.583000 C 23.075001 0.241000 22.577999 0.079000 21.955999 0.079000 C 20.253000 0.079000 17.608000 1.304000 14.644000 3.407000 C 15.033000 3.528000 15.412000 3.669000 15.777000 3.840000 C 18.459000 2.019000 20.681000 1.079000 21.957001 1.079000 C 22.204000 1.079000 22.535999 1.116000 22.711000 1.290000 C 23.658001 2.237000 21.745001 7.681000 14.714000 14.712000 C 9.325000 20.101000 4.262000 22.920000 2.046000 22.920000 C 1.798000 22.920000 1.467000 22.882999 1.292000 22.709000 C 0.666000 22.083000 1.303000 19.481001 3.834000 15.760000 C 3.667000 15.400000 3.528000 15.026000 3.409000 14.642000 C 0.537000 18.688999 -0.691000 22.139000 0.585000 23.416000 C 0.927000 23.757999 1.424000 23.920000 2.046000 23.920000 C 4.865000 23.920000 10.256000 20.583000 15.421000 15.419000 C 21.725000 9.114000 25.305000 2.472000 23.417000 0.583000 Z" fill="#0078D7"/><path d=" M 4.000000 0.000000 C 4.000000 2.209000 2.209000 4.000000 0.000000 4.000000 C 2.209000 4.000000 4.000000 5.791000 4.000000 8.000000 C 4.000000 5.791000 5.791000 4.000000 8.000000 4.000000 C 5.791000 4.000000 4.000000 2.209000 4.000000 0.000000 L 4.000000 0.000000 Z" fill="#0078D7"/><path d=" M 21.000000 18.000000 C 21.000000 19.657000 19.657000 21.000000 18.000000 21.000000 C 19.657000 21.000000 21.000000 22.343000 21.000000 24.000000 C 21.000000 22.343000 22.343000 21.000000 24.000000 21.000000 C 22.343000 21.000000 21.000000 19.657000 21.000000 18.000000 L 21.000000 18.000000 Z" fill="#0078D7"/><path d=" M 8.639000 13.194000 L 8.312000 13.194000 C 8.353000 13.031000 8.373000 12.867000 8.373000 12.684000 C 8.373000 11.479000 7.393000 10.500000 6.189000 10.500000 L 4.146000 10.500000 C 4.053000 10.986000 4.000000 11.487000 4.000000 12.000000 C 4.000000 14.164000 4.863000 16.122999 6.258000 17.563000 L 8.639000 17.563000 C 9.844000 17.563000 10.823000 16.583000 10.823000 15.379000 C 10.823000 14.174000 9.843000 13.194000 8.639000 13.194000 Z" fill="#59B4D9"/><path d=" M 14.001000 14.011000 C 14.003000 14.009000 14.004000 14.008000 14.006000 14.006000 C 14.302000 13.710000 14.578000 13.422000 14.853000 13.135000 C 14.480000 13.323000 14.178000 13.631000 14.001000 14.011000 Z" fill="#59B4D9"/><path d=" M 16.127001 16.127001 C 15.191000 17.063000 14.242000 17.941999 13.296000 18.759001 C 13.632000 19.091999 14.093000 19.299000 14.600000 19.299000 L 15.265000 19.299000 C 17.784000 18.170000 19.611000 15.780000 19.941000 12.929000 L 19.070000 12.929000 C 18.146999 14.017000 17.159000 15.094000 16.127001 16.127001 Z" fill="#59B4D9"/><path d=" M 12.661000 11.234000 L 16.587000 11.234000 C 17.545000 10.127000 18.346001 9.100000 19.009001 8.161000 C 18.209999 6.709000 16.976999 5.528000 15.478000 4.803000 L 15.029000 4.803000 C 14.212000 4.803000 13.559000 5.456000 13.559000 6.273000 C 13.559000 6.395000 13.579000 6.538000 13.620000 6.661000 L 12.681000 6.661000 C 11.395000 6.661000 10.374000 7.682000 10.374000 8.947000 C 10.374000 10.212000 11.395000 11.234000 12.661000 11.234000 Z" fill="#59B4D9"/></svg>