<svg xmlns="http://www.w3.org/2000/svg" width="60" height="60" viewBox="0 0 60 60">
    <g fill="none" fill-rule="nonzero">
        <path fill="#B8D432" d="M20.367 47.525c4.325-3.047 9.29-7.152 14.648-12.51 5.503-5.503 9.548-10.418 12.52-14.633C44.135 14.195 37.56 10 30 10c-11.045 0-20 8.955-20 20 0 7.553 4.188 14.123 10.367 17.525zM40.318 40.318a129.004 129.004 0 0 1-10.795 9.657c.16.005.317.025.477.025 11.045 0 20-8.955 20-20 0-.163-.02-.317-.025-.477a130.202 130.202 0 0 1-9.657 10.795z"/>
        <path fill="#0078D7" d="M58.542 1.458C57.688.603 56.445.198 54.89.198c-4.258 0-10.87 3.062-18.28 8.32.973.302 1.92.654 2.833 1.082 6.705-4.552 12.26-6.902 15.45-6.902.617 0 1.447.092 1.885.527 2.367 2.368-2.415 15.978-19.993 33.555C23.313 50.252 10.655 57.3 5.115 57.3c-.62 0-1.448-.093-1.885-.527-1.565-1.566.027-8.07 6.355-17.373-.418-.9-.765-1.835-1.063-2.795-7.18 10.117-10.25 18.742-7.06 21.935.855.855 2.098 1.26 3.653 1.26 7.047 0 20.525-8.342 33.438-21.252 15.76-15.763 24.71-32.368 19.99-37.09zM10 0c0 5.522-4.478 10-10 10 5.522 0 10 4.477 10 10 0-5.523 4.477-10 10-10-5.523 0-10-4.478-10-10zM52.5 45a7.5 7.5 0 0 1-7.5 7.5 7.5 7.5 0 0 1 7.5 7.5 7.5 7.5 0 0 1 7.5-7.5 7.5 7.5 0 0 1-7.5-7.5z"/>
        <path fill="#59B4D9" d="M21.598 32.985h-.818a5.12 5.12 0 0 0 .152-1.275c0-3.012-2.45-5.46-5.46-5.46h-5.107A19.93 19.93 0 0 0 10 30c0 5.41 2.158 10.307 5.645 13.907h5.953c3.012 0 5.46-2.45 5.46-5.46a5.468 5.468 0 0 0-5.46-5.462zM35.002 35.028l.013-.013c.74-.74 1.43-1.46 2.117-2.178a4.664 4.664 0 0 0-2.13 2.19zM40.318 40.318a132.539 132.539 0 0 1-7.078 6.58 4.623 4.623 0 0 0 3.26 1.35h1.663c6.297-2.823 10.865-8.798 11.69-15.925h-2.178a134.07 134.07 0 0 1-7.357 7.995zM31.652 28.085h9.816c2.394-2.768 4.397-5.335 6.055-7.683a20.08 20.08 0 0 0-8.828-8.395h-1.123a3.659 3.659 0 0 0-3.675 3.675c0 .306.05.663.153.97h-2.347c-3.215 0-5.768 2.553-5.768 5.715a5.71 5.71 0 0 0 5.718 5.718z"/>
    </g>
</svg>
