<svg version="1.1" viewBox="0.000000 0.000000 64.000000 64.000000" xmlns="http://www.w3.org/2000/svg" xmlns:xlink="http://www.w3.org/1999/xlink" id="Layer_1" overflow="hidden"><g><path d=" M 63.599998 32.400002 C 64.199997 31.799999 64.099998 30.700001 63.599998 30.100000 L 60.500000 27.000000 L 46.700001 13.600000 C 46.099998 13.000000 45.200001 13.000000 44.500000 13.600000 L 44.500000 13.600000 C 43.900002 14.200000 43.700001 15.300000 44.500000 15.900000 L 59.000000 30.100000 C 59.599998 30.700001 59.599998 31.799999 59.000000 32.400002 L 44.200001 47.099998 C 43.599998 47.700001 43.599998 48.799999 44.200001 49.400002 L 44.200001 49.400002 C 44.799999 50.000000 45.900002 49.900002 46.400002 49.400002 L 60.099998 35.799999 C 60.099998 35.799999 60.099998 35.799999 60.200001 35.700001 L 63.599998 32.400002 Z" fill="#3999C6"/><path d=" M 0.400000 32.400002 C -0.200000 31.799999 -0.100000 30.700001 0.400000 30.100000 L 3.500000 27.000000 L 17.299999 13.600000 C 17.900000 13.000000 18.799999 13.000000 19.500000 13.600000 L 19.500000 13.600000 C 20.100000 14.200000 20.299999 15.300000 19.500000 15.900000 L 5.300000 30.100000 C 4.700000 30.700001 4.700000 31.799999 5.300000 32.400002 L 19.799999 47.099998 C 20.400000 47.700001 20.400000 48.799999 19.799999 49.400002 L 19.799999 49.400002 C 19.200001 50.000000 18.100000 49.900002 17.600000 49.400002 L 3.600000 36.000000 C 3.600000 36.000000 3.600000 36.000000 3.500000 35.900002 L 0.400000 32.400002 Z" fill="#3999C6"/><path d=" M 47.599998 2.500000 L 28.100000 2.500000 L 17.600000 32.099998 L 30.400000 32.200001 L 20.400000 61.500000 L 48.000000 22.400000 L 34.599998 22.400000 Z" fill="#FCD116"/><path d=" M 34.599998 22.400000 L 47.599998 2.500000 L 37.400002 2.500000 L 26.600000 27.100000 L 39.400002 27.200001 L 20.400000 61.500000 L 48.000000 22.400000 Z" fill="#FF8C00" opacity="0.300000"/></g></svg>