<?xml version="1.0" encoding="UTF-8"?>
<svg width="60px" height="60px" viewBox="0 0 60 60" version="1.1" xmlns="http://www.w3.org/2000/svg" xmlns:xlink="http://www.w3.org/1999/xlink">
    <!-- Generator: Sketch 49.1 (51147) - http://www.bohemiancoding.com/sketch -->
    <title>Untitled 3</title>
    <desc>Created with Sketch.</desc>
    <defs></defs>
    <g id="Page-1" stroke="none" stroke-width="1" fill="none" fill-rule="evenodd">
        <g id="functions-logo" fill-rule="nonzero">
            <path d="M58.7272727,30.4 C59.2727273,29.8 59.1818182,28.7 58.7272727,28.1 L55.9090909,25 L43.3636364,11.6 C42.8181818,11 42,11 41.3636364,11.6 C40.8181818,12.2 40.6363636,13.3 41.3636364,13.9 L54.5454545,28.1 C55.0909091,28.7 55.0909091,29.8 54.5454545,30.4 L41.0909091,45.1 C40.5454545,45.7 40.5454545,46.8 41.0909091,47.4 C41.6363636,48 42.6363636,47.9 43.0909091,47.4 L55.5454545,33.8 L55.6363636,33.7 L58.7272727,30.4 Z M1.27272727,30.4 C0.727272727,29.8 0.818181818,28.7 1.27272727,28.1 L4.09090909,25 L16.6363636,11.6 C17.1818182,11 18,11 18.6363636,11.6 C19.1818182,12.2 19.3636364,13.3 18.6363636,13.9 L5.72727273,28.1 C5.18181818,28.7 5.18181818,29.8 5.72727273,30.4 L18.9090909,45.1 C19.4545455,45.7 19.4545455,46.8 18.9090909,47.4 C18.3636364,48 17.3636364,47.9 16.9090909,47.4 L4.18181818,34 L4.09090909,33.9 L1.27272727,30.4 Z" id="Shape" fill="#3999C6"></path>
            <polygon id="Shape" fill="#FCD116" points="44.1818182 0.5 26.4545455 0.5 16.9090909 30.1 28.5454545 30.2 19.4545455 59.5 44.5454545 20.4 32.3636364 20.4"></polygon>
            <polygon id="Shape" fill="#FF8C00" opacity="0.3" points="32.3636364 20.4 44.1818182 0.5 34.9090909 0.5 25.0909091 25.1 36.7272727 25.2 19.4545455 59.5 44.5454545 20.4"></polygon>
        </g>
    </g>
</svg>